<svg width="36" height="36" viewBox="0 0 36 36" fill="none" xmlns="http://www.w3.org/2000/svg">
<rect width="36" height="36" rx="12" fill="#B3B2B9"/>
<path d="M14.2514 18C14.2514 15.929 15.93 14.2497 18.0012 14.2497C20.0724 14.2497 21.7519 15.929 21.7519 18C21.7519 20.071 20.0724 21.7503 18.0012 21.7503C15.93 21.7503 14.2514 20.071 14.2514 18ZM12.2238 18C12.2238 21.1905 14.8103 23.7767 18.0012 23.7767C21.192 23.7767 23.7785 21.1905 23.7785 18C23.7785 14.8095 21.192 12.2233 18.0012 12.2233C14.8103 12.2233 12.2238 14.8095 12.2238 18ZM22.6571 11.9942C22.657 12.2612 22.7361 12.5223 22.8843 12.7443C23.0326 12.9664 23.2434 13.1395 23.4901 13.2418C23.7367 13.3441 24.0082 13.3709 24.2701 13.3189C24.532 13.2669 24.7727 13.1385 24.9616 12.9497C25.1505 12.761 25.2791 12.5205 25.3313 12.2587C25.3835 11.9968 25.3569 11.7253 25.2548 11.4786C25.1527 11.2319 24.9798 11.021 24.7578 10.8726C24.5358 10.7241 24.2748 10.6449 24.0078 10.6447H24.0072C23.6493 10.6449 23.3061 10.7871 23.0529 11.0401C22.7998 11.2932 22.6574 11.6363 22.6571 11.9942ZM13.4557 27.1572C12.3588 27.1073 11.7625 26.9246 11.3663 26.7702C10.841 26.5657 10.4662 26.3222 10.0722 25.9287C9.6781 25.5352 9.43417 25.1608 9.23057 24.6356C9.07611 24.2396 8.8934 23.6433 8.84353 22.5464C8.78898 21.3606 8.77809 21.0044 8.77809 18.0001C8.77809 14.9958 8.78988 14.6406 8.84353 13.4537C8.89349 12.3569 9.07755 11.7617 9.23057 11.3646C9.43507 10.8393 9.67864 10.4646 10.0722 10.0705C10.4657 9.67653 10.8401 9.43263 11.3663 9.22905C11.7624 9.07461 12.3588 8.89191 13.4557 8.84205C14.6417 8.78751 14.9979 8.77662 18.0012 8.77662C21.0044 8.77662 21.3611 8.78841 22.548 8.84205C23.645 8.892 24.2402 9.07605 24.6374 9.22905C25.1627 9.43263 25.5375 9.67707 25.9316 10.0705C26.3256 10.464 26.5686 10.8393 26.7731 11.3646C26.9276 11.7606 27.1103 12.3569 27.1602 13.4537C27.2147 14.6406 27.2256 14.9958 27.2256 18.0001C27.2256 21.0044 27.2147 21.3596 27.1602 22.5464C27.1102 23.6433 26.9266 24.2394 26.7731 24.6356C26.5686 25.1608 26.3251 25.5356 25.9316 25.9287C25.538 26.3218 25.1627 26.5657 24.6374 26.7702C24.2414 26.9247 23.645 27.1074 22.548 27.1572C21.362 27.2118 21.0058 27.2227 18.0012 27.2227C14.9966 27.2227 14.6413 27.2118 13.4557 27.1572ZM13.3625 6.81813C12.1648 6.87267 11.3463 7.06257 10.6316 7.34067C9.89133 7.62786 9.26468 8.01315 8.63849 8.63829C8.01229 9.26343 7.62795 9.891 7.34073 10.6312C7.0626 11.3463 6.87268 12.1642 6.81814 13.3618C6.76269 14.5614 6.75 14.9449 6.75 18C6.75 21.0551 6.76269 21.4386 6.81814 22.6381C6.87268 23.8359 7.0626 24.6537 7.34073 25.3688C7.62795 26.1085 8.01238 26.7368 8.63849 27.3617C9.26459 27.9866 9.89133 28.3713 10.6316 28.6593C11.3477 28.9374 12.1648 29.1273 13.3625 29.1819C14.5628 29.2364 14.9457 29.25 18.0012 29.25C21.0566 29.25 21.4402 29.2373 22.6398 29.1819C23.8377 29.1273 24.6556 28.9374 25.3708 28.6593C26.1106 28.3713 26.7377 27.9868 27.3639 27.3617C27.9901 26.7366 28.3736 26.1085 28.6616 25.3688C28.9398 24.6537 29.1306 23.8358 29.1842 22.6381C29.2388 21.4377 29.2515 21.0551 29.2515 18C29.2515 14.9449 29.2388 14.5614 29.1842 13.3618C29.1297 12.1641 28.9398 11.3458 28.6616 10.6312C28.3736 9.89145 27.9891 9.26442 27.3639 8.63829C26.7387 8.01216 26.1106 7.62786 25.3717 7.34067C24.6556 7.06257 23.8376 6.87177 22.6407 6.81813C21.4411 6.76359 21.0575 6.75 18.0021 6.75C14.9466 6.75 14.5628 6.76269 13.3625 6.81813Z" fill="white"/>
</svg>
