<svg width="36" height="36" viewBox="0 0 36 36" fill="none" xmlns="http://www.w3.org/2000/svg">
<path d="M0 17.28C0 9.13413 1.78814e-07 5.06119 2.5306 2.5306C5.0612 0 9.13413 0 17.28 0H18.72C26.8659 0 30.9388 0 33.4694 2.5306C36 5.06119 36 9.13413 36 17.28V18.72C36 26.8659 36 30.9388 33.4694 33.4694C30.9388 36 26.8659 36 18.72 36H17.28C9.13413 36 5.0612 36 2.5306 33.4694C1.78814e-07 30.9388 0 26.8659 0 18.72V17.28Z" fill="#B3B2B9"/>
<path d="M19.2189 26.025C11.1115 26.025 6.19272 20.3896 6 11.025H10.1062C10.2342 17.904 13.3581 20.819 15.7527 21.4184V11.025H19.6878V16.9616C21.9976 16.7051 24.4153 14.0049 25.2279 11.025H29.1011C28.4812 14.6893 25.8492 17.3896 23.9896 18.5034C25.8507 19.404 28.8451 21.7613 30 26.025H25.7428C24.8439 23.1749 22.6419 20.9674 19.6892 20.6677V26.025H19.2189Z" fill="white"/>
</svg>
